STARTFONT 2.1
FONT matty.tengwar.9
SIZE 25 72 72
FONTBOUNDINGBOX 22 25 0 -9
STARTPROPERTIES 4
FONT_DESCENT 9
FONT_ASCENT 16
DEFAULT_CHAR 1
COPYRIGHT "Copyright (c) 1993 James Matthew Farrow - All rights reserved."
ENDPROPERTIES
CHARS 46
STARTCHAR ch-1
ENCODING 1
SWIDTH 480 0
DWIDTH 12 0
BBX 12 25 0 -9
BITMAP
000000
000000
000000
000000
000000
000000
000000
000000
000000
cf8000
78c000
706000
606000
606000
606000
6cc000
678000
600000
600000
600000
600000
600000
600000
400000
800000
ENDCHAR
STARTCHAR ch-2
ENCODING 2
SWIDTH 600 0
DWIDTH 15 0
BBX 15 25 0 -9
BITMAP
000000
000000
000000
000000
000003
000000
000000
000000
000003
cf8000
78c000
706000
606001
606000
606000
60cc02
7ff800
600000
600000
600000
600000
600000
600000
400000
800001
ENDCHAR
STARTCHAR ch-3
ENCODING 3
SWIDTH 480 0
DWIDTH 12 0
BBX 12 25 0 -9
BITMAP
000000
000000
000000
000000
000003
000000
000000
000000
002003
3c4000
66c000
c0c000
c0c001
c0c000
c1c000
63c002
3ec000
00c000
00c000
00c000
00c000
00c000
00c000
008000
010001
ENDCHAR
STARTCHAR ch-4
ENCODING 4
SWIDTH 520 0
DWIDTH 13 0
BBX 13 25 0 -9
BITMAP
000000
000000
000000
000000
000003
000000
000000
000000
c03003
7fe000
306000
606000
606001
606000
60e000
31e002
1f6000
006000
006001
006000
006000
006000
006000
004000
008001
ENDCHAR
STARTCHAR ch-5
ENCODING 5
SWIDTH 760 0
DWIDTH 19 0
BBX 19 25 0 -9
BITMAP
000002
000000
000000
000002
000000
000000
000000
000000
000003
cf9f00
78f180
7060c0
6060c1
6060c0
6060c0
6cd980
678f01
600000
600000
600000
600000
600000
600000
400000
800001
ENDCHAR
STARTCHAR ch-6
ENCODING 6
SWIDTH 880 0
DWIDTH 22 0
BBX 22 25 0 -9
BITMAP
000002
000000
000000
000002
000000
000000
000000
000000
000003
cf9f00
78f180
7060c0
6060c1
6060c1
6060c0
60c198
7ffff1
600000
600000
600000
600000
600003
600000
400000
800001
ENDCHAR
STARTCHAR ch-7
ENCODING 7
SWIDTH 760 0
DWIDTH 19 0
BBX 19 25 0 -9
BITMAP
000000
000000
000000
000000
000003
000000
000000
000000
000043
3c7880
66cd80
c18180
c18181
c18181
c18380
63c782
3e7d80
000180
000180
000180
000180
000183
000180
000100
000201
ENDCHAR
STARTCHAR ch-8
ENCODING 8
SWIDTH 800 0
DWIDTH 20 0
BBX 20 25 0 -9
BITMAP
000000
000000
000000
000000
000003
000000
000000
000000
c00063
7fffc0
3060c0
60c0c0
60c0c1
60c0c1
60c1c1
31e3c2
1f3ec0
0000c1
0000c1
0000c0
0000c0
0000c1
0000c0
000080
000101
ENDCHAR
STARTCHAR ch-9
ENCODING 9
SWIDTH 480 0
DWIDTH 12 0
BBX 12 25 0 -9
BITMAP
000000
c00000
600000
600000
600003
600000
600000
600000
600003
6f8000
78c000
706000
606001
606000
606000
6cc002
678000
400000
800000
000000
000000
000002
000000
000000
000001
ENDCHAR
STARTCHAR ch-10
ENCODING 10
SWIDTH 600 0
DWIDTH 15 0
BBX 15 25 0 -9
BITMAP
000000
c00000
600000
600000
600003
600000
600000
600000
600003
6f8000
78c000
706000
606001
606000
606000
60cc02
7ff800
400000
800000
000000
000000
000000
000000
000000
000001
ENDCHAR
STARTCHAR ch-11
ENCODING 11
SWIDTH 480 0
DWIDTH 12 0
BBX 12 25 0 -9
BITMAP
002000
004000
00c000
00c000
00c003
00c000
00c000
00c000
00c003
3cc000
66c000
c0c000
c0c001
c0c000
c1c000
63c002
3ec000
008000
010000
000000
000000
000000
000000
000000
000001
ENDCHAR
STARTCHAR ch-12
ENCODING 12
SWIDTH 520 0
DWIDTH 13 0
BBX 13 25 0 -9
BITMAP
001000
002000
006000
006000
006003
006000
006000
006000
c06003
7fe000
306000
606000
606001
606000
60e000
31e002
1f6000
004000
008001
000000
000000
000000
000000
000000
000001
ENDCHAR
STARTCHAR ch-13
ENCODING 13
SWIDTH 760 0
DWIDTH 19 0
BBX 19 25 0 -9
BITMAP
000002
c00000
600000
600001
600000
600000
600000
600000
600003
6f9f00
78f180
7060c0
6060c1
6060c0
6060c0
6cd980
678f01
400000
800000
000000
000000
000000
000000
000000
000001
ENDCHAR
STARTCHAR ch-14
ENCODING 14
SWIDTH 880 0
DWIDTH 22 0
BBX 22 25 0 -9
BITMAP
000000
c00000
600000
600000
600003
600000
600000
600000
600003
6f9f00
78f180
7060c0
6060c1
6060c1
6060c0
60c19a
7ffff0
400000
800000
000000
000000
000003
000000
000000
000001
ENDCHAR
STARTCHAR ch-15
ENCODING 15
SWIDTH 760 0
DWIDTH 19 0
BBX 19 25 0 -9
BITMAP
000040
000080
000180
000180
000183
000180
000180
000180
000183
3c7980
66cd80
c18180
c18181
c18181
c18380
63c782
3e7d80
000100
000200
000000
000000
000003
000000
000000
000001
ENDCHAR
STARTCHAR ch-16
ENCODING 16
SWIDTH 800 0
DWIDTH 20 0
BBX 20 25 0 -9
BITMAP
000020
000040
0000c0
0000c0
0000c3
0000c1
0000c0
0000c0
c000c3
7fffc1
3060c0
60c0c0
60c0c1
60c0c1
60c1c1
31e3c2
1f3ec0
000081
000101
000000
000000
000001
000000
000000
000001
ENDCHAR
STARTCHAR ch-17
ENCODING 17
SWIDTH 760 0
DWIDTH 19 0
BBX 19 25 0 -9
BITMAP
000000
000000
000000
000000
000003
000000
000000
000000
000003
cf9f00
78f180
7060c0
6060c1
6060c0
6060c0
6cd982
678f00
400000
800000
000000
000000
000002
000000
000000
000001
ENDCHAR
STARTCHAR ch-18
ENCODING 18
SWIDTH 880 0
DWIDTH 22 0
BBX 22 25 0 -9
BITMAP
000002
000000
000000
000001
000000
000000
000000
000000
000003
cf9f00
78f180
7060c0
6060c1
6060c1
6060c0
60c198
7ffff1
400000
800000
000000
000000
000003
000000
000000
000001
ENDCHAR
STARTCHAR ch-19
ENCODING 19
SWIDTH 760 0
DWIDTH 19 0
BBX 19 25 0 -9
BITMAP
000000
000000
000000
000000
000003
000000
000000
000000
000043
3c7880
66cd80
c18180
c18181
c18181
c18380
63c782
3e7d80
000100
000200
000000
000000
000003
000000
000000
000001
ENDCHAR
STARTCHAR ch-20
ENCODING 20
SWIDTH 800 0
DWIDTH 20 0
BBX 20 25 0 -9
BITMAP
000000
000000
000000
000000
000003
000000
000000
000000
c00063
7fffc0
3060c0
60c0c0
60c0c1
60c0c1
60c1c1
31e3c2
1f3ec0
000081
000101
000000
000000
000001
000000
000000
000001
ENDCHAR
STARTCHAR ch-21
ENCODING 21
SWIDTH 480 0
DWIDTH 12 0
BBX 12 25 0 -9
BITMAP
000000
000000
000000
000000
000003
000000
000000
000000
000003
cf8000
78c000
706000
606001
606000
606000
6cc002
678000
400000
800000
000000
000000
000002
000000
000000
000001
ENDCHAR
STARTCHAR ch-22
ENCODING 22
SWIDTH 600 0
DWIDTH 15 0
BBX 15 25 0 -9
BITMAP
000000
000000
000000
000000
000003
000000
000000
000000
000003
cf8000
78c000
706000
606001
606000
606000
60cc02
7ff800
400000
800000
000000
000000
000000
000000
000000
000001
ENDCHAR
STARTCHAR ch-23
ENCODING 23
SWIDTH 480 0
DWIDTH 12 0
BBX 12 25 0 -9
BITMAP
000002
000000
000000
000001
000000
000000
000000
000000
002003
3c4000
66c000
c0c000
c0c001
c0c000
c1c000
63c000
3ec001
008000
010000
000000
000000
000000
000000
000000
000001
ENDCHAR
STARTCHAR ch-24
ENCODING 24
SWIDTH 520 0
DWIDTH 13 0
BBX 13 25 0 -9
BITMAP
000000
000000
000000
000000
000003
000000
000000
000000
c03003
7fe000
306000
606000
606001
606000
60e000
31e002
1f6000
004000
008001
000000
000000
000000
000000
000000
000001
ENDCHAR
STARTCHAR ch-25
ENCODING 25
SWIDTH 440 0
DWIDTH 11 0
BBX 11 25 0 -9
BITMAP
000000
000000
000000
000000
000003
000000
000000
000000
000003
cf8000
d8c000
70c000
60c001
318000
330000
1e0002
1c0000
380000
600000
c30000
c18000
630000
3e0000
000000
000001
ENDCHAR
STARTCHAR ch-26
ENCODING 26
SWIDTH 480 0
DWIDTH 12 0
BBX 12 25 0 -9
BITMAP
000000
000000
000000
000000
000003
000000
000000
000000
000003
67c000
6c6000
386000
306001
38c000
198000
3f0002
6e0000
d80000
f00003
618000
60c000
318000
1f0000
000000
000001
ENDCHAR
STARTCHAR ch-27
ENCODING 27
SWIDTH 640 0
DWIDTH 16 0
BBX 16 25 0 -9
BITMAP
000000
000000
000000
000000
000003
000000
000000
000000
000203
3ffc00
7ff800
8e0000
180001
300000
300000
600002
600000
601800
301801
303000
1ce000
078000
000000
000000
000001
ENDCHAR
STARTCHAR ch-28
ENCODING 28
SWIDTH 640 0
DWIDTH 16 0
BBX 16 25 0 -9
BITMAP
000000
000000
000000
000000
000003
000000
000000
000000
000203
3ffc00
7ff800
8e0000
180001
300000
300002
19e002
0f3000
001800
001800
303000
1ce000
078000
000000
000000
000001
ENDCHAR
STARTCHAR ch-29
ENCODING 29
SWIDTH 400 0
DWIDTH 10 0
BBX 10 25 0 -9
BITMAP
000000
000000
000000
000000
018003
030000
060000
0c0000
180003
300000
600000
600000
c30001
c18000
c18002
630002
3e0000
000000
000000
000000
000000
000000
000000
000000
000001
ENDCHAR
STARTCHAR ch-30
ENCODING 30
SWIDTH 400 0
DWIDTH 10 0
BBX 10 25 0 -9
BITMAP
000000
000000
000000
000000
000003
000000
000003
000000
000003
3e0000
630000
c18000
c18001
618000
030000
030002
060000
0c0000
180001
300000
600000
c00000
000000
000000
000001
ENDCHAR
STARTCHAR ch-31
ENCODING 31
SWIDTH 400 0
DWIDTH 10 0
BBX 10 25 0 -9
BITMAP
000000
000000
000000
000000
018003
030000
060000
0c0000
180003
300000
600000
600000
c30001
c18000
c18001
630002
7e0000
600000
c30003
c18000
c18000
630000
3e0000
000000
000001
ENDCHAR
STARTCHAR ch-32
ENCODING 32
SWIDTH 400 0
DWIDTH 10 0
BBX 10 25 0 -9
BITMAP
000000
000000
000000
000000
000003
000000
000003
000000
000003
3e0000
630000
c18000
c18001
030000
3f0000
630002
c18000
c18000
618001
030000
030000
060000
0c0000
180000
300001
ENDCHAR
STARTCHAR ch-37
ENCODING 37
SWIDTH 400 0
DWIDTH 10 0
BBX 10 25 0 -9
BITMAP
000000
000000
000000
000000
000003
000000
000000
000000
000003
060000
0c0000
0c0000
0c0001
0c0000
0c0001
0c0002
0c0000
080000
100003
000000
000000
000000
000001
000000
000001
ENDCHAR
STARTCHAR ch-38
ENCODING 38
SWIDTH 400 0
DWIDTH 10 0
BBX 10 25 0 -9
BITMAP
000000
000000
000000
000000
000003
000000
000000
000000
000003
060000
0c0000
0c0000
0c0001
0c0000
0c0000
0c0002
0c0000
0c0000
0c0000
0c0000
0c0000
0c0000
0c0000
080000
100001
ENDCHAR
STARTCHAR ch-48
ENCODING 48
SWIDTH 0 0
DWIDTH 0 0
BBX 9 25 -10 -9
BITMAP
000000
000000
000000
0f0000
198003
330000
600000
c00000
000003
000000
000000
000000
000001
000000
000000
000002
000000
000000
000000
000000
000000
000000
000000
000000
000001
ENDCHAR
STARTCHAR ch-49
ENCODING 49
SWIDTH 0 0
DWIDTH 0 0
BBX 7 25 -10 -9
BITMAP
000000
000000
000000
780000
cc0003
180000
300003
600000
000003
000000
000000
000000
000001
000000
000000
000002
000000
000000
000000
000000
000000
000000
000000
000000
000001
ENDCHAR
STARTCHAR ch-54
ENCODING 54
SWIDTH 0 0
DWIDTH 0 0
BBX 13 25 -11 -9
BITMAP
000000
000000
000000
0ff000
199803
333000
660000
cc0000
000003
000000
000000
000000
000001
000000
000000
000002
000000
000000
000000
000000
000000
000000
000000
000000
000001
ENDCHAR
STARTCHAR ch-55
ENCODING 55
SWIDTH 0 0
DWIDTH 0 0
BBX 10 25 -10 -9
BITMAP
000000
000000
000000
7f8000
ccc003
198000
330003
660000
000003
000000
000000
000000
000001
000000
000000
000002
000000
000000
000000
000000
000000
000000
000000
000000
000001
ENDCHAR
STARTCHAR ch-57
ENCODING 57
SWIDTH 480 0
DWIDTH 12 0
BBX 12 25 0 -9
BITMAP
000000
c00000
600000
600000
600003
600000
600001
600000
600003
6f8000
78c000
706000
606001
606000
606000
6cc002
678000
600000
600000
600000
600000
600000
600000
400000
800001
ENDCHAR
STARTCHAR ch-58
ENCODING 58
SWIDTH 600 0
DWIDTH 15 0
BBX 15 25 0 -9
BITMAP
000000
c00000
600000
600000
600003
600000
600000
600000
600003
6f8000
78c000
706000
606001
606000
606000
60cc02
7ff800
600000
600000
600000
600000
600000
600000
400000
800001
ENDCHAR
STARTCHAR ch-59
ENCODING 59
SWIDTH 480 0
DWIDTH 12 0
BBX 12 25 0 -9
BITMAP
002000
004000
00c000
00c000
00c003
00c000
00c000
00c000
00c003
3cc000
66c000
c0c000
c0c001
c0c000
c1c000
63c002
3ec000
00c000
00c000
00c000
00c000
00c000
00c000
008000
010001
ENDCHAR
STARTCHAR ch-60
ENCODING 60
SWIDTH 520 0
DWIDTH 13 0
BBX 13 25 0 -9
BITMAP
001000
002000
006000
006000
006003
006000
006000
006000
c06003
7fe000
306000
606000
606001
606000
60e000
31e002
1f6000
006000
006001
006000
006000
006000
006000
004000
008001
ENDCHAR
STARTCHAR ch-61
ENCODING 61
SWIDTH 760 0
DWIDTH 19 0
BBX 19 25 0 -9
BITMAP
000000
c00000
600000
600000
600003
600000
600000
600000
600003
6f9f00
78f180
7060c0
6060c1
6060c0
6060c0
6cd982
678f00
600000
600000
600000
600000
600000
600000
400000
800001
ENDCHAR
STARTCHAR ch-62
ENCODING 62
SWIDTH 880 0
DWIDTH 22 0
BBX 22 25 0 -9
BITMAP
000000
c00000
600000
600000
600003
600000
600000
600000
600003
6f9f00
78f180
7060c0
6060c1
6060c1
6060c0
60c19a
7ffff0
600000
600000
600000
600000
600003
600000
400000
800001
ENDCHAR
STARTCHAR ch-63
ENCODING 63
SWIDTH 760 0
DWIDTH 19 0
BBX 19 25 0 -9
BITMAP
000040
000080
000180
000180
000183
000180
000180
000180
000183
3c7980
66cd80
c18180
c18181
c18181
c18380
63c782
3e7d80
000180
000180
000180
000180
000183
000180
000100
000201
ENDCHAR
STARTCHAR ch-64
ENCODING 64
SWIDTH 800 0
DWIDTH 20 0
BBX 20 25 0 -9
BITMAP
000020
000040
0000c0
0000c0
0000c3
0000c1
0000c0
0000c0
c000c3
7fffc1
3060c0
60c0c0
60c0c1
60c0c1
60c1c1
31e3c2
1f3ec0
0000c1
0000c1
0000c0
0000c0
0000c1
0000c0
000080
000101
ENDCHAR
ENDFONT
